<svg xmlns="http://www.w3.org/2000/svg" viewBox="0 0 1400 800" role="presentation" aria-hidden="true" focusable="false">
  <defs>
    <linearGradient id="bg" x1="0" y1="0" x2="1" y2="1">
      <stop offset="0" stop-color="#765783"/>
      <stop offset="1" stop-color="#40314f"/>
    </linearGradient>
    <radialGradient id="halo" cx="50%" cy="42%" r="58%">
      <stop offset="0" stop-color="#e9d9bd" stop-opacity=".2"/>
      <stop offset="1" stop-color="#e9d9bd" stop-opacity="0"/>
    </radialGradient>
    <linearGradient id="portrait" x1="0" y1="0" x2="0" y2="1">
      <stop offset="0" stop-color="#ddd0bd"/>
      <stop offset="1" stop-color="#b9aa95"/>
    </linearGradient>
    <linearGradient id="bottomShade" x1="0" y1="0" x2="0" y2="1">
      <stop offset="0" stop-color="#291f35" stop-opacity="0"/>
      <stop offset=".62" stop-color="#291f35" stop-opacity=".12"/>
      <stop offset="1" stop-color="#291f35" stop-opacity=".73"/>
    </linearGradient>
  </defs>
  <rect width="1400" height="800" fill="url(#bg)"/>
  <circle cx="955" cy="325" r="355" fill="url(#halo)"/>
  <g fill="none" stroke="#f0e0c5" stroke-opacity=".1" stroke-width="3">
    <path d="M-35 565C180 445 330 515 515 415s350-132 530-47 275 80 380 28"/>
    <path d="M-15 635C205 520 370 595 560 486s348-111 520-24 260 80 350 42"/>
  </g>
  <g transform="translate(788 102)">
    <ellipse cx="206" cy="224" rx="117" ry="135" fill="url(#portrait)"/>
    <path d="M96 224c8-112 52-177 112-177 62 0 106 66 110 177-33-41-70-62-111-62-41 0-79 20-111 62Z" fill="#523c60"/>
    <path d="M103 211c-31 39-47 89-43 142 17-20 34-36 52-49-7-34-10-65-9-93Zm209 0c31 39 47 89 43 142-17-20-34-36-52-49 7-34 10-65 9-93Z" fill="#523c60"/>
    <path d="M175 346h62v70h-62z" fill="#c8b8a2"/>
    <path d="M4 651c22-146 101-237 202-237s180 91 201 237Z" fill="#dacdb8"/>
    <path d="M43 651c18-112 79-183 163-183s145 71 163 183Z" fill="#654a70"/>
    <path d="M152 474l54 83 54-83" fill="none" stroke="#dacdb8" stroke-width="24" stroke-linecap="round" stroke-linejoin="round"/>
  </g>
  <g fill="none" stroke="#f0e0c5" stroke-opacity=".09" stroke-width="2">
    <circle cx="132" cy="126" r="71"/>
    <circle cx="132" cy="126" r="48"/>
    <circle cx="132" cy="126" r="26"/>
  </g>
  <rect width="1400" height="800" fill="url(#bottomShade)"/>
</svg>